<svg id="Layer_1" data-name="Layer 1" xmlns="http://www.w3.org/2000/svg" viewBox="0 0 300 300"><defs><style>.cls-1{stroke:#000;stroke-miterlimit:10;stroke-width:3px;}</style></defs><title>iconos_boaty</title><path class="cls-1" d="M236.25,63.74h-37.5v-15a3.75,3.75,0,0,0-7.5,0V82.49a3.75,3.75,0,1,0,7.5,0V71.24h37.5A11.27,11.27,0,0,1,247.5,82.49v33.76h-195V82.49A11.26,11.26,0,0,1,63.74,71.24h41.2v-7.5H63.74A18.78,18.78,0,0,0,45,82.49V236.26A18.78,18.78,0,0,0,63.74,255H236.26A18.78,18.78,0,0,0,255,236.26V82.49A18.78,18.78,0,0,0,236.25,63.74ZM247.5,236.26a11.26,11.26,0,0,1-11.25,11.25H63.74a11.26,11.26,0,0,1-11.25-11.25V123.75h195V236.26Z"/><path class="cls-1" d="M105,86.24a3.74,3.74,0,0,0,3.75-3.75V71.24H195.2v-7.5H108.74v-15a3.75,3.75,0,1,0-7.5,0V82.49A3.74,3.74,0,0,0,105,86.24Z"/></svg>