<svg id="Layer_1" data-name="Layer 1" xmlns="http://www.w3.org/2000/svg" viewBox="0 0 300 300"><title>iconos_boaty</title><path d="M155.53,204.89H32a4.93,4.93,0,0,1-3.24-8.64L152.29,88.32A4.93,4.93,0,0,1,160.46,92V200A4.92,4.92,0,0,1,155.53,204.89ZM45.14,195H150.6V102.89Z"/><path d="M243.58,204.89h-62a4.92,4.92,0,0,1-4.93-4.93V38.12a4.93,4.93,0,0,1,9.53-1.77l62,161.85a4.92,4.92,0,0,1-4.6,6.69ZM186.52,195h49.89L186.52,64.78Z"/><path d="M232.41,266.88h-174a4.94,4.94,0,0,1-4.54-3l-26.42-62A4.93,4.93,0,0,1,32,195H258.84a4.93,4.93,0,0,1,4.53,6.87l-26.42,62A4.94,4.94,0,0,1,232.41,266.88ZM61.69,257H229.15l22.22-52.12H39.47Z"/></svg>