<svg id="Layer_1" data-name="Layer 1" xmlns="http://www.w3.org/2000/svg" viewBox="0 0 300 300"><title>iconos_boaty</title><path d="M150,79.74a33.41,33.41,0,1,1-23.61,9.79A33.23,33.23,0,0,1,150,79.74Zm17,16.41a24.06,24.06,0,1,0,7,17A24,24,0,0,0,166.94,96.15Z"/><path d="M150,33.19a83,83,0,0,1,83,83c0,1.93-.13,5.88-.44,9.66a57.5,57.5,0,0,1-.88,7.19c-5.44,25.67-27.6,57-47.65,85.21-12.33,17.42-23.87,33.7-29.79,46.29a4.66,4.66,0,0,1-6.19,2.24,4.6,4.6,0,0,1-2.24-2.24h0c-5.88-12.55-17.42-28.78-29.74-46.2C96.21,190.4,74.36,159.56,68.56,134a59.86,59.86,0,0,1-1-7.73c-.31-3.9-.49-8-.49-10.09a83,83,0,0,1,83-83Zm52,30.89a73.59,73.59,0,0,0-125.62,52c0,1.93.18,5.75.44,9.34a60,60,0,0,0,.79,6.45c5.4,23.74,26.68,53.8,45.94,81,10.14,14.3,19.75,27.86,26.37,39.57,6.63-11.71,16.24-25.27,26.42-39.62,19.48-27.51,41-57.91,46.11-81.78.26-1.28.48-3.56.7-6,.27-3.42.4-7.11.4-8.95A73.48,73.48,0,0,0,202,64.08Z"/></svg>