<svg id="Layer_1" data-name="Layer 1" xmlns="http://www.w3.org/2000/svg" viewBox="0 0 300 300"><title>iconos_boaty</title><path d="M254.36,192.69H154.74v-19h99.62a4.74,4.74,0,0,0,3.6-7.83L153.6,42.56a4.74,4.74,0,0,0-8.35,3.08V58.26L60.86,166a4.76,4.76,0,0,0,.78,6.67,4.83,4.83,0,0,0,3,1h80.64v19H45.64a4.75,4.75,0,0,0-4.75,4.75,61.66,61.66,0,0,0,61.67,61.66h94.87a61.66,61.66,0,0,0,61.67-61.66A4.75,4.75,0,0,0,254.36,192.69ZM154.74,58.59l89.37,105.64H154.74Zm-9.49,15v90.6H74.33Zm52.18,176H102.56a52.19,52.19,0,0,1-52.18-47.44H249.61A52.18,52.18,0,0,1,197.43,249.62Z"/></svg>