<svg id="Layer_1" data-name="Layer 1" xmlns="http://www.w3.org/2000/svg" viewBox="0 0 300 300"><title>iconos_boaty</title><path d="M254.6,67.42a66.57,66.57,0,0,0-94,0L150,78,139.42,67.42a66.56,66.56,0,0,0-94,0C20,92.81,19.92,133.15,45.19,161.24c24.65,27.38,97.86,87,101,89.5a5.69,5.69,0,0,0,3.6,1.28H150a5.65,5.65,0,0,0,3.85-1.27c3.1-2.53,76.32-62.12,101-89.5C280.08,133.15,280,92.81,254.6,67.42Zm-8.29,86.17c-21.11,23.47-81.4,73.3-96.31,85.53-14.92-12.23-75.19-62.06-96.31-85.53s-21.23-57.06-.21-78.08a55.09,55.09,0,0,1,77.86,0l14.37,14.37a5.45,5.45,0,0,0,3.17,1.51,5.74,5.74,0,0,0,5.4-1.51l14.38-14.37a55.11,55.11,0,0,1,77.86,0C267.54,96.53,267.45,130.1,246.31,153.59Z"/></svg>