<svg id="Layer_1" data-name="Layer 1" xmlns="http://www.w3.org/2000/svg" viewBox="0 0 300 300"><title>iconos_boaty</title><path d="M149.71,40.72c60.35,0,109.57,48.64,109.57,109S210.06,259.28,149.71,259.28s-109-49.22-109-109.57A108.79,108.79,0,0,1,149.71,40.72ZM82.91,222.36a74.72,74.72,0,0,1,46.29-41c-12.31-7-21.09-20.51-21.09-35.74v-3.52a41.6,41.6,0,1,1,83.2,0v3.52a41.11,41.11,0,0,1-20.51,35.74c20.51,6.44,37.5,21.09,45.7,41a99.47,99.47,0,0,0,31.64-72.65,98.44,98.44,0,1,0-196.87,0A99.47,99.47,0,0,0,82.91,222.36Zm125.39,7a62.66,62.66,0,0,0-58.59-39.84,61.89,61.89,0,0,0-58,39.84,99.36,99.36,0,0,0,58,18.75A101.16,101.16,0,0,0,208.3,229.39ZM149.71,111a31.26,31.26,0,0,0-31.06,31.05v3.52a31.06,31.06,0,0,0,62.11,0v-3.52A31.26,31.26,0,0,0,149.71,111Z"/></svg>