<svg id="Layer_1" data-name="Layer 1" xmlns="http://www.w3.org/2000/svg" viewBox="0 0 300 300"><defs></defs><title>iconos_boaty</title><path d="M246,241.15H54.06a24,24,0,0,1-24-24V174h4.81a24,24,0,0,0,0-48H30.06V82.84a24,24,0,0,1,24-24H246a24,24,0,0,1,24,24V126h-4.78a24,24,0,0,0,0,48h4.8v43.17A24,24,0,0,1,246,241.15ZM39.65,183.24v33.92A14.41,14.41,0,0,0,54,231.55H246a14.41,14.41,0,0,0,14.39-14.39V183.24a33.59,33.59,0,0,1,0-66.48V82.84A14.41,14.41,0,0,0,246,68.45H54.06A14.41,14.41,0,0,0,39.65,82.84v33.92a33.59,33.59,0,0,1,0,66.48Z"/><path class="cls-1" d="M154,175.48H92.68a2.45,2.45,0,0,1-1.61-4.29l61.32-53.57a2.45,2.45,0,0,1,4.06,1.84V173A2.45,2.45,0,0,1,154,175.48Zm-54.8-4.89h52.35V124.85Z"/><path class="cls-1" d="M197.7,175.48H166.93a2.45,2.45,0,0,1-2.45-2.44V92.7a2.45,2.45,0,0,1,4.74-.87L200,172.16a2.49,2.49,0,0,1-.27,2.26A2.44,2.44,0,0,1,197.7,175.48Zm-28.32-4.89h24.76l-24.76-64.65Z"/><path class="cls-1" d="M192.16,206.25H105.8a2.45,2.45,0,0,1-2.25-1.49L90.43,174a2.48,2.48,0,0,1,.21-2.32,2.45,2.45,0,0,1,2-1.09H205.27a2.44,2.44,0,0,1,2.26,3.41l-13.12,30.76A2.45,2.45,0,0,1,192.16,206.25Zm-84.74-4.9h83.12l11-25.87H96.39Z"/></svg>